HIERARCHY
ROOT Hips
{
  OFFSET -31.5692 30.0904 122.763
  CHANNELS 6 Xposition Yposition Zposition Zrotation Xrotation Yrotation
  JOINT LeftUpLeg
  {
    OFFSET 8.64259 1.95398 -2.38835
    CHANNELS 3 Zrotation Xrotation Yrotation
    JOINT LeftLeg
    {
      OFFSET 43.7702 0 0
      CHANNELS 3 Zrotation Xrotation Yrotation
      JOINT LeftFoot
      {
        OFFSET 40.6238 0 0
        CHANNELS 3 Zrotation Xrotation Yrotation
        JOINT LeftToeBase
        {
          OFFSET 12.7242 0 0
          CHANNELS 3 Zrotation Xrotation Yrotation
          End Site
          {
            OFFSET 0 0 0
          }
        }
      }
    }
  }
  JOINT RightUpLeg
  {
    OFFSET -8.2249 1.95398 -2.59336
    CHANNELS 3 Zrotation Xrotation Yrotation
    JOINT RightLeg
    {
      OFFSET 43.5653 0 0
      CHANNELS 3 Zrotation Xrotation Yrotation
      JOINT RightFoot
      {
        OFFSET 40.6238 0 0
        CHANNELS 3 Zrotation Xrotation Yrotation
        JOINT RightToeBase
        {
          OFFSET 12.7242 0 0
          CHANNELS 3 Zrotation Xrotation Yrotation
          End Site
          {
            OFFSET 0 0 0
          }
        }
      }
    }
  }
  JOINT Spine
  {
    OFFSET 0.165834 0.87714 6.61349
    CHANNELS 3 Zrotation Xrotation Yrotation
    JOINT Spine1
    {
      OFFSET 7.38963 1.71661e-005 0
      CHANNELS 3 Zrotation Xrotation Yrotation
      JOINT Spine2
      {
        OFFSET 11.9445 1.14441e-005 0
        CHANNELS 3 Zrotation Xrotation Yrotation
        JOINT Spine3
        {
          OFFSET 14.7254 4.19617e-005 0
          CHANNELS 3 Zrotation Xrotation Yrotation
          JOINT Spine4
          {
            OFFSET 10.9679 0 0
            CHANNELS 3 Zrotation Xrotation Yrotation
            JOINT RightShoulder
            {
              OFFSET 2.46616 -1.6653 3.69651
              CHANNELS 3 Zrotation Xrotation Yrotation
              JOINT RightArm
              {
                OFFSET 13.0012 0 0
                CHANNELS 3 Zrotation Xrotation Yrotation
                JOINT RightForeArm
                {
                  OFFSET 28.7848 1.62311e-005 0
                  CHANNELS 3 Zrotation Xrotation Yrotation
                  JOINT RightHand
                  {
                    OFFSET 26.5688 1.62095e-005 0
                    CHANNELS 3 Zrotation Xrotation Yrotation
                    End Site
                    {
                      OFFSET 0 0 0
                    }
                  }
                }
              }
            }
            JOINT LeftShoulder
            {
              OFFSET 2.38034 -1.29275 -3.7523
              CHANNELS 3 Zrotation Xrotation Yrotation
              JOINT LeftArm
              {
                OFFSET 16.3182 6.07031e-005 0
                CHANNELS 3 Zrotation Xrotation Yrotation
                JOINT LeftForeArm
                {
                  OFFSET 27.0901 0 0
                  CHANNELS 3 Zrotation Xrotation Yrotation
                  JOINT LeftHand
                  {
                    OFFSET 24.5451 1.51738e-005 0
                    CHANNELS 3 Zrotation Xrotation Yrotation
                    End Site
                    {
                      OFFSET 0 0 0
                    }
                  }
                }
              }
            }
            JOINT Neck
            {
              OFFSET 5.0226 -0.0266342 0
              CHANNELS 3 Zrotation Xrotation Yrotation
              JOINT Head
              {
                OFFSET 6.69364 2.86102e-005 0
                CHANNELS 3 Zrotation Xrotation Yrotation
                End Site
                {
                  OFFSET 0 0 0
                }
              }
            }
          }
        }
      }
    }
  }
}
MOTION
Frames:	15
Frame Time:	0.0416667
40.307 53.8944 16.5308 -9.77327 -52.697 -14.8202 -75.229 68.5666 13.1597 -135.544 15.2256 6.3019 103.946 27.4224 -2.69833 40.2029 2.9386 10.8428 79.5231 73.8085 168.182 -134.122 -7.6192 -5.24651 98.9666 -27.9067 -4.26595 54.5642 -11.5463 1.49948 0.576645 13.5386 -90.0088 -0.204664 1.14641 0.0410498 -11.8751 1.14711 -0.0094399 -34.4139 1.08107 0.383749 -14.4013 1.08106 0.383745 93.9793 -5.81007 -109.176 -13.1189 15.5623 -33.5255 -0.00144399 -23.5859 -14.9419 -81.0087 -9.20015 4.61237 -85.4402 -11.7653 76.5443 6.762 -16.7428 -65.5035 -0.264464 7.1175 0.0366153 63.4736 -2.84364 -7.76633 15.197 -2.4692 -10.2032 -3.1112 0.351608 7.60199 
41.0574 51.4857 13.1763 -13.5604 -56.501 -16.7336 -73.8705 66.6595 12.7679 -138.682 11.5051 6.68035 107.347 30.7945 -0.224155 43.8274 4.23058 14.9856 74.8597 72.5212 171.221 -137.999 -9.50355 -5.68227 99.9873 -28.6707 -3.9465 52.7036 -10.6389 3.73029 0.426293 13.2606 -90.2415 0.353667 0.760453 -0.436219 -11.3171 0.740518 -0.469273 -33.8539 0.85639 -0.187494 -13.8413 0.856395 -0.187499 93.2663 -0.917051 -115.746 -9.6482 14.9113 -32.2861 0.700665 -27.5153 -11.9528 -70.685 -9.5285 7.03736 -88.8699 -21.8826 72.5654 15.1855 -16.9117 -59.3261 -2.64667 8.51739 -0.533255 58.2281 -1.89761 -6.48109 -1.15707 0.11699 -0.596827 9.62859 0.233968 0.354161 
41.3814 49.5235 9.26404 -16.0149 -59.8785 -18.9191 -67.0115 65.7713 8.7672 -141.764 11.6076 7.11284 110.67 30.9289 -4.40193 37.4664 1.30658 11.0489 69.7713 71.1868 174.301 -140.692 -11.986 -6.05702 102.24 -30.5551 -3.32124 50.0547 -9.5389 4.55102 0.178607 12.9876 -90.3584 0.898588 0.22156 -0.69013 -10.7725 0.19097 -0.699226 -33.3067 0.418715 -0.591647 -13.294 0.418723 -0.591645 90.6285 -1.63204 -124.02 -16.1266 13.224 -27.7308 4.18984 -30.8757 -9.15873 -65.4645 -8.64535 6.67003 -92.2782 -31.169 69.4899 20.6497 -18.0495 -57.9604 -3.27278 13.3294 0.0327833 55.4529 -2.65923 -7.52847 -12.2865 0.16647 9.04484 18.3535 -1.48382 -6.77042 
41.4838 47.6487 5.36411 -17.6538 -63.1332 -20.9735 -62.7799 63.6494 6.16607 -143.748 13.2345 7.3543 111.716 32.8875 -3.32572 32.7943 -0.35884 7.6581 63.4144 69.3091 178.503 -143.029 -11.8434 -6.38012 106.154 -31.7362 -0.128656 47.4735 -8.50801 4.0868 0.0828082 12.9634 -90.3325 0.946819 0.0399743 -0.645885 -10.7243 0.011506 -0.647033 -33.2583 0.232236 -0.604009 -13.2456 0.232236 -0.60402 89.8183 0.203705 -129.076 -18.427 12.1692 -23.571 5.03884 -30.6261 -8.11676 -62.4806 -8.93951 8.1062 -93.3372 -32.9899 68.2539 20.667 -20.2776 -59.7607 -2.72869 19.1595 -0.00435409 50.863 -1.65619 -5.51344 -11.0683 -0.0182628 12.1259 18.6043 -2.41744 -9.3963 
41.4693 45.8794 1.73537 -19.5967 -67.476 -23.0605 -60.5227 63.0029 6.08803 -145.338 12.7301 7.54225 116.017 32.7791 -8.61133 24.7275 -3.8001 4.84753 60.002 67.2301 179.493 -145.267 -12.2015 -6.75701 107.864 -32.5597 1.04589 42.5645 -6.67923 6.88665 0.0635607 13.2607 -90.3368 0.351714 0.0014342 -0.653812 -11.3193 -0.0273485 -0.653264 -33.8535 0.197865 -0.623159 -13.8408 0.197866 -0.623169 89.0268 -6.77667 -123.274 -23.2208 15.9059 -34.0328 9.12577 -40.0242 -3.8007 -54.9565 -9.07377 9.96332 -92.5041 -29.5279 68.3845 18.2064 -22.1964 -61.4774 -0.597517 27.8389 -0.001061 35.0595 -1.98455 -8.8029 -0.788576 0.795023 10.0667 11.743 -1.55517 -7.33388 
42.1642 44.5336 -1.60489 -6.97852 -74.3289 -12.6727 -66.6621 59.8976 8.25528 -145.363 13.3683 7.68796 116.426 32.715 -9.63912 17.2773 -7.5978 4.14486 49.9721 69.1309 -178.696 -147.935 -14.4978 -6.94728 108.423 -32.5513 2.57833 36.9149 -4.52995 7.03311 -0.496786 13.7401 -90.4378 -0.612575 -1.14896 -0.91533 -12.2833 -1.18813 -0.863894 -34.8182 -0.820771 -1.21832 -14.8056 -0.820774 -1.21832 96.115 10.6177 -118.665 -8.3035 14.8513 -33.446 3.09807 -35.7653 -7.92647 -46.4978 -5.17075 4.18821 -90.6897 -23.9143 69.5872 15.1636 -23.3197 -62.7113 1.42009 31.0061 0.00320424 42.1758 0.0677694 -1.80278 12.9637 1.38538 4.22951 2.29001 0.170572 -2.23864 
41.1407 42.9161 -4.93324 -18.7919 -74.7555 -22.1653 -52.9149 60.8698 -0.165882 -146.731 15.3882 7.83949 117 32.5868 -11.8465 11.333 -9.55366 1.56698 52.5553 61.7678 -176.028 -148.054 -11.3568 -7.48921 108.655 -33.1721 1.07248 32.3255 -2.89902 7.85783 0.0765707 13.9106 -90.3921 -0.947987 0.0112032 -0.760107 -12.6192 -0.0222677 -0.75988 -35.1526 0.239114 -0.721612 -15.1399 0.239117 -0.721612 92.6638 -0.1062 -118.592 -21.7962 17.4919 -30.6501 2.18905 -38.9285 -10.8176 -42.0064 -4.03923 1.92046 -88.8582 -17.3687 70.6015 10.2869 -24.3964 -64.3849 3.70917 35.2551 0.00737707 37.6959 0.594982 -0.557444 25.6687 0.28599 -1.81545 -5.59356 0.88433 2.48207 
40.6244 41.9992 -7.60193 -24.4211 -75.9673 -26.9186 -45.5714 60.295 -5.34557 -146.843 17.6141 7.97029 115.458 32.8712 -10.7528 4.74356 -11.8165 -0.813536 52.3655 57.9164 -173.819 -147.722 -10.3553 -7.81658 107.254 -32.8433 -0.33906 29.0882 -2.06696 10.0279 0.358719 14.0781 -90.36 -1.28154 0.58559 -0.659972 -12.9525 0.55597 -0.685121 -35.4881 0.756862 -0.45348 -15.4754 0.75686 -0.453475 94.6028 1.30886 -113.065 -17.2141 19.0163 -33.3142 -3.83428 -38.3378 -17.7529 -42.6312 -3.82513 1.17775 -88.7208 -14.9598 69.7593 5.97024 -24.9684 -64.4191 4.85614 29.3201 0.226535 33.4457 0.108568 -2.56855 32.3191 -1.22296 -6.19524 -7.8174 1.21228 6.04282 
40.5725 41.5988 -9.83564 -25.1942 -78.0121 -27.7967 -42.6472 58.0642 -8.6033 -146.603 18.9194 8.14129 109.828 31.8533 -6.51668 3.95045 -12.745 -0.0374817 49.7494 56.3298 -172.109 -147.549 -11.0385 -8.05523 105.022 -31.748 -1.04377 26.348 -1.17637 10.5022 0.333805 14.2346 -90.4053 -1.59452 0.520651 -0.749634 -13.2656 0.48716 -0.771828 -35.8005 0.721877 -0.558523 -15.7878 0.721868 -0.558509 95.69 2.70326 -110.09 -14.8377 18.3713 -33.6929 -11.7875 -41.2813 -28.1652 -47.6927 -4.12562 0.286085 -89.1225 -14.8236 68.702 3.3064 -24.6764 -63.3881 6.11297 29.5263 -2.25547 36.6269 -1.27156 -5.69994 35.9074 -1.61607 -6.89606 -7.41951 1.37665 6.12537 
40.6226 41.1979 -11.6442 -25.6217 -79.0264 -28.017 -39.3981 55.3511 -11.8325 -146.368 19.188 8.34773 105.43 30.2391 -3.76288 1.8364 -13.9541 -0.0411615 47.027 54.0738 -170.268 -147.452 -12.4595 -8.3768 102.723 -31.2933 -2.73951 21.9351 0.0935731 11.766 0.340914 14.2711 -90.4228 -1.66738 0.528765 -0.782273 -13.3385 0.49382 -0.804812 -35.8733 0.739413 -0.587215 -15.8607 0.73942 -0.587213 95.1983 0.707475 -110.169 -18.4809 15.0272 -29.7184 -19.4243 -39.9532 -40.6543 -49.085 -3.03767 -2.88971 -89.6177 -15.1534 67.6993 7.194 -21.9504 -58.9982 9.5627 30.0029 -10.9773 41.228 -3.09523 -9.04332 37.7274 -1.58715 -7.0015 -6.60841 1.61087 6.25929 
40.937 41.2555 -13.1391 -27.5399 -80.294 -30.4085 -40.3401 53.3197 -10.5245 -145.431 18.5252 8.53636 103.129 28.8363 -3.09488 1.928 -14.8209 1.32644 43.9363 53.7032 -168.186 -147.138 -13.9563 -8.50838 99.2122 -29.2746 -3.53511 21.034 0.655207 10.8524 0.217397 14.2081 -90.2234 -1.54213 0.353395 -0.408568 -13.2131 0.335071 -0.42373 -35.7484 0.45984 -0.28346 -15.7357 0.459851 -0.283477 93.319 -3.00592 -113.579 -21.618 10.3765 -25.5786 -27.7319 -41.797 -51.4667 -55.4565 -2.99777 -4.53998 -90.4826 -16.45 66.3791 12.7773 -18.6609 -53.8201 18.5514 46.2268 -21.1444 39.1697 -4.1427 -10.4273 36.7108 -2.0694 -9.05111 -4.93321 2.10455 7.3315 
41.0497 41.2516 -14.284 -28.9942 -80.3091 -31.4901 -39.6132 51.7377 -11.2136 -144.399 16.309 8.5469 103.358 28.2765 -3.39313 1.26311 -13.9344 -0.571896 43.2542 52.1979 -167.402 -146.281 -13.6432 -8.53009 97.9403 -28.5201 -4.13671 20.2272 0.563991 12.239 0.23981 14.0382 -90.3092 -1.20216 0.366726 -0.575805 -12.8732 0.341025 -0.591381 -35.4081 0.522818 -0.438973 -15.3955 0.52282 -0.438965 92.7878 -4.27967 -114.237 -23.5554 4.94832 -24.0448 -41.2011 -46.5109 -64.8362 -48.202 -2.65778 -6.2724 -91.0979 -18.998 66.3616 17.788 -12.4189 -52.7671 23.1575 48.8584 -27.8153 43.1785 -4.90784 -10.171 38.3653 -1.32453 -6.43244 -5.22807 1.7075 6.0078 
41.2736 41.7044 -15.257 -29.1721 -80.3522 -31.8707 -39.5471 51.0457 -11.6649 -142.999 15.7928 8.51244 101.404 26.8642 -3.00771 3.20897 -13.1905 0.00481653 42.8152 52.2039 -166.631 -144.695 -13.0548 -8.40522 97.5079 -28.0916 -4.01833 19.6043 0.783936 12.2473 0.276358 13.8456 -90.2991 -0.816674 0.44241 -0.554456 -12.4877 0.417583 -0.573395 -35.0229 0.588584 -0.395871 -15.0102 0.588594 -0.395861 92.282 -5.71755 -114.622 -23.9461 -0.383057 -24.5323 -40.8533 -46.7119 -66.5374 -59.8355 -6.15905 -0.419171 -91.4327 -19.7386 66.0231 18.618 -7.61431 -54.3309 25.2601 54.3463 -30.6721 42.0959 -4.3671 -8.75397 40.2716 -1.485 -6.19799 -6.71186 1.48816 5.68664 
41.4751 42.7246 -15.9679 -27.972 -79.7432 -30.7657 -40.383 51.0771 -11.2647 -141.054 16.8525 8.42228 100.272 27.0976 -1.2797 1.94224 -14.0358 0.172134 43.0815 52.4873 -166.639 -142.534 -12.2028 -8.15309 97.3657 -27.4229 -3.21765 19.8637 0.78948 11.8996 0.260192 13.5676 -90.2659 -0.260774 0.421204 -0.494672 -11.9317 0.399037 -0.512722 -34.467 0.550401 -0.345206 -14.4544 0.550405 -0.345207 91.2509 -6.97863 -116.703 -22.5487 -3.06477 -26.278 -45.4553 -53.5066 -70.1382 -53.2149 -5.46248 -1.4905 -93.3254 -22.7158 63.582 18.6707 -4.40022 -54.7208 22.8821 56.9719 -28.0227 41.2935 -4.31875 -8.7604 40.7381 -1.25972 -5.73576 -6.23742 1.54206 4.69545 
41.6311 44.2571 -16.3703 -25.833 -78.5444 -28.2946 -40.6828 51.9404 -11.0713 -138.818 17.5687 7.95013 99.8058 26.3025 -1.9676 0.327134 -13.4226 -2.0774 43.8974 53.308 -167.426 -140.205 -14.6347 -7.93242 96.105 -26.962 -4.05158 20.8196 0.446676 11.9166 0.327873 13.3518 -90.2294 0.170908 0.568933 -0.419861 -11.5 0.549894 -0.444493 -34.0359 0.668806 -0.229469 -14.0233 0.668809 -0.229448 92.2154 -6.99644 -113.793 -17.0958 -2.05987 -34.3945 -35.8565 -57.7969 -60.7669 -58.2431 -8.51417 4.07092 -93.1465 -23.359 64.2853 16.1556 -2.91311 -59.1705 12.6707 55.5896 -19.2391 39.7758 -2.81021 -5.98527 43.0614 -1.81882 -6.46425 -6.99791 1.48103 4.96121 
